<svg xmlns="http://www.w3.org/2000/svg" width="3.6in" height="6.1in" viewBox="0 0 256 435.8"><path fill="#fff" d="M28.2 431.9L3.9 386.1V167.9L28.2 123h54.6v308.9H28.2z"/><path fill="#231f20" d="M78.9 126.9V428H30.6L7.8 385.1V168.9l22.7-42h48.4m7.8-7.8H25.9L0 166.9V387l25.9 48.8h60.8V119.1z"/><path fill="#fff" d="M181 231.7c-1.1-4.5-3.7-12.7-8.9-20.9-7.2-11.2-20.8-24.6-45.2-24.6s-15 1.2-23.3 3.5v-66.6h98.3l49.9 57.7v50.9h-70.9z"/><path fill="#231f20" d="M200.1 127.2l47.7 55.2v45.3h-63.7c-1.5-5-4.1-12-8.6-19-11.1-17.3-27.9-26.5-48.6-26.5-6.1 0-12.5.8-19.2 2.4v-57.3h92.4m3.7-8.1H99.6v76.1c10.4-3.5 19.5-5 27.3-5 43.6 0 50.9 45.5 50.9 45.5H256v-56.4l-52.1-60.2z"/><path fill="#fff" d="M103.7 431.8v-58.7c8.3 2.1 16.1 3.2 23.3 3.2 24.2 0 37.9-12 45.1-22.1 5.2-7.3 7.8-14.6 9-18.7h71v44.8l-49.8 51.5h-98.6z"/><path fill="#231f20" d="M247.9 339.5v39.1l-47.5 49.1h-92.7v-49.6c6.7 1.4 13.2 2.1 19.2 2.1 26 0 40.6-12.9 48.4-23.8 4.4-6.2 7.1-12.5 8.6-17h63.9m8.1-8.1h-78.2s-7.3 40.7-50.9 40.7-16.9-1.3-27.3-4.5v68.1h104.2l52.1-53.9v-50.5z"/><g fill="#231f20"><path d="M36 104.9h40.3v17.4H36z"/><path d="M73 108.1v11H39.2v-11H73m6.5-6.5H32.8v23.9h46.7v-23.9z"/></g><g fill="#231f20"><ellipse cx="34.1" cy="102.9" rx="9.4" ry="9.4"/><path d="M34.1 96.8c3.4 0 6.2 2.8 6.2 6.1s-2.8 6.1-6.2 6.1-6.2-2.8-6.2-6.1 2.8-6.1 6.2-6.1m0-6.5c-7 0-12.7 5.7-12.7 12.6s5.7 12.6 12.7 12.6 12.7-5.7 12.7-12.6-5.7-12.6-12.7-12.6z"/></g><path fill="#231f20" d="M61.2 25.1c1.3 6.5 3.8 12 6.2 17.4 3.8 8.5 7.4 16.5 6.7 29-.4 7.6-8 12.3-14.7 12.3s-1.5 0-2.2-.2c-7.6-1.1-12.1-4.4-12.6-18.1-.3-8.2 7.7-25 16.7-40.4m8-25.1S37.3 46.5 38 65.8c.6 15.7 6.4 22.6 18.2 24.3 1.1.2 2.1.2 3.2.2 10.6 0 20.5-7.6 21.2-18.4C82.5 40.1 59.3 33.6 69.4 0z"/></svg>