<svg xmlns="http://www.w3.org/2000/svg" id="Layer_1" viewBox="0 0 9.6 16" width="9.6" height="16"><style>.st0{fill:#231f20}</style><path d="M1.1 15.9l-1-1.8v-8l1-1.6h2v11.4z" class="st0"/><path d="M3 4.7v11H1.1l-.9-1.6V6.2l.9-1.5H3m.3-.3H1L0 6.1v8.1L1 16h2.3V4.4zm3.5 4.1c-.1-.4-.6-1.7-2-1.7-.3 0-.6 0-.9.1V4.5h3.7l1.9 2.1v1.9H6.8z" class="st0"/><path d="M7.5 4.7l1.8 2v1.7H6.9c-.2-.7-.8-1.7-2.1-1.7-.2 0-.5 0-.7.1V4.7h3.4m.2-.3h-4v2.8c.4-.2.8-.2 1.1-.2 1.6 0 1.9 1.7 1.9 1.7h2.9V6.6L7.7 4.4zM3.9 15.8v-2.2c.3.1.6.1.9.1 1.5 0 1.9-1.1 2-1.5h2.7V14l-1.9 1.9H3.9z" class="st0"/><path d="M9.3 12.5v1.4l-1.8 1.8H4v-1.8c.3 0 .5.1.8.1 1.3 0 1.9-.9 2.1-1.5h2.4m.3-.3H6.7s-.3 1.5-1.9 1.5c-.3 0-.6 0-1-.2V16h3.9l2-2v-1.8h-.1zM1.4 3.9h1.5v.6H1.4z" class="st0"/><path d="M2.8 4v.4H1.5V4h1.3m.2-.3H1.2v.9H3v-.9z" class="st0"/><ellipse cx="1.3" cy="3.8" class="st0" rx=".4" ry=".3"/><path d="M1.3 3.6c.1 0 .2.1.2.2s-.1.2-.2.2-.3-.1-.3-.2.2-.2.3-.2m0-.3c-.3 0-.5.2-.5.5s.2.4.5.4.5-.2.5-.4-.3-.5-.5-.5zm1-2.4c0 .2.1.4.2.6.1.3.3.6.3 1.1 0 .3-.3.4-.6.4h-.1c-.2 0-.4-.1-.4-.6 0-.3.3-.9.6-1.5m.3-.9S1.4 1.7 1.4 2.4c0 .6.2.8.7.9h.1c.4 0 .8-.3.8-.7.1-1.1-.8-1.4-.4-2.6z" class="st0"/></svg>