<?xml version="1.0" encoding="UTF-8"?><svg id="a" xmlns="http://www.w3.org/2000/svg" width=".7in" height=".7in" viewBox="0 0 48.5 48.5"><path d="M24.2,0c13.4,0,24.2,10.9,24.2,24.2s-10.9,24.2-24.2,24.2S0,37.6,0,24.2,10.9,0,24.2,0" fill="#736b92"/><path d="M24.2,13.1c3.6,0,4.1,0,5.5,0,.9,0,1.7,.2,2.5,.5,1.2,.5,2.1,1.4,2.6,2.6,.3,.8,.5,1.7,.5,2.5,0,1.4,0,1.9,0,5.5s0,4.1,0,5.5c0,.9-.2,1.7-.5,2.5-.5,1.2-1.4,2.1-2.6,2.6-.8,.3-1.7,.5-2.5,.5-1.4,0-1.9,0-5.5,0s-4.1,0-5.5,0c-.9,0-1.7-.2-2.5-.5-1.2-.5-2.1-1.4-2.5-2.6-.3-.8-.5-1.7-.5-2.5,0-1.4,0-1.9,0-5.5s0-4.1,0-5.5c0-.9,.2-1.7,.5-2.5,.5-1.2,1.4-2.1,2.5-2.5,.8-.3,1.7-.5,2.5-.5,1.4,0,1.9,0,5.5,0m0-2.4c-3.7,0-4.1,0-5.6,0-1.1,0-2.2,.2-3.3,.6-1.8,.7-3.3,2.2-4,4-.4,1.1-.6,2.2-.6,3.3,0,1.4,0,1.9,0,5.6s0,4.1,0,5.6c0,1.1,.3,2.2,.7,3.2,.7,1.8,2.2,3.3,4,4,1.1,.4,2.2,.6,3.3,.6,1.4,0,1.9,0,5.6,0s4.1,0,5.6,0c1.1,0,2.2-.2,3.3-.6,1.8-.7,3.3-2.2,4-4,.4-1.1,.6-2.2,.6-3.3,0-1.4,0-1.9,0-5.6s0-4.1,0-5.6c0-1.1-.2-2.2-.6-3.3-.7-1.8-2.2-3.3-4-4-1.1-.4-2.2-.6-3.3-.6-1.4,0-1.9,0-5.6,0h0Z" fill="#fff"/><path d="M24.2,17.3c-3.8,0-7,3.1-7,7s3.1,7,7,7,7-3.1,7-7-3.1-7-7-7m0,11.5c-2.5,0-4.5-2-4.5-4.5s2-4.5,4.5-4.5,4.5,2,4.5,4.5-2,4.5-4.5,4.5" fill="#fff"/><path d="M31.5,15.4c.9,0,1.6,.7,1.6,1.6s-.7,1.6-1.6,1.6-1.6-.7-1.6-1.6,.7-1.6,1.6-1.6" fill="#fff"/></svg>