<?xml version="1.0" encoding="UTF-8"?><svg id="a" xmlns="http://www.w3.org/2000/svg" width=".7in" height=".7in" viewBox="0 0 48.1 48.3"><path d="M24,.2c13.3,0,24,10.8,24,24s-10.8,24-24,24S0,37.5,0,24.2,10.8,.2,24,.2" fill="#736b92"/><path d="M27.7,38.7c2.9,0,5.7-1,6.7-2.3l.2-.2-1.8-5.4h-4.1c0,0-.1,0-.1,0,0-.2,0-.4,0-.7v-6.5c0,0,0-.1,.1-.1h4.7c0,0,.1,0,.1-.1h0v-6.6c0,0,0-.1-.1-.1h-4.7c0,0-.1,0-.1-.1v-6.6h-8.3c-.7,0-1.3,.5-1.4,1.2-.4,3.3-1.9,5.3-4.8,6.3h-.3c0,.1,0,.2,0,.2v5.8h3.1v7c0,5.6,3.9,8.2,11.1,8.2m1-1.2h-.2c-5.8,0-7.4-4.5-7.4-7.1v-8.2h-3c0,0-.1,0-.1-.1v-3.8c3.1-1.2,4.8-3.5,5.2-7.1,0-.1,0-.2,.2-.2h3.8c0,0,.1,0,.1,.1h0v6.5c0,0,0,.1,.1,.1h4.7c0,0,.1,0,.1,.1v4.3c0,0,0,.1-.1,.1h-4.8v7.8c0,1.7,.9,2.6,2.5,2.6,.7,0,1.4-.2,2.1-.4,0,0,.1,0,.1,0h0l1.2,3.6c-.9,.9-2.8,1.6-4.6,1.6" fill="#fff"/></svg>