<?xml version="1.0" encoding="UTF-8"?><svg id="a" xmlns="http://www.w3.org/2000/svg" width=".7in" height=".7in" viewBox="0 0 48.5 48.5"><path d="M24.2,0c13.4,0,24.2,10.9,24.2,24.2s-10.9,24.2-24.2,24.2S0,37.6,0,24.2,10.9,0,24.2,0" fill="#736b92"/><path d="M37.8,15.8c-1,.4-2.1,.7-3.2,.9,1.2-.7,2-1.8,2.4-3.1-1.1,.7-2.3,1.1-3.5,1.4-2.1-2.2-5.6-2.4-7.9-.2-1.1,1.1-1.8,2.5-1.8,4.1,0,.4,0,.9,.1,1.3-4.5-.2-8.6-2.3-11.5-5.8-1.5,2.5-.7,5.8,1.7,7.4-.9,0-1.8-.3-2.5-.7h0c0,2.7,1.9,5,4.5,5.5-.8,.2-1.7,.3-2.5,0,.7,2.3,2.8,3.8,5.2,3.9-2,1.5-4.4,2.4-6.9,2.4-.4,0-.9,0-1.3,0,2.6,1.6,5.5,2.5,8.6,2.5,10.3,0,15.8-8.5,15.8-15.8v-.7c1.1-.8,2-1.8,2.8-2.9Z" fill="#fff"/></svg>